<?xml version="1.0" encoding="UTF-8" standalone="no"?>
<!-- Created with Inkscape (http://www.inkscape.org/) -->

<svg
   width="126.82941mm"
   height="141.72206mm"
   viewBox="0 0 126.82941 141.72206"
   version="1.1"
   id="svg5"
   inkscape:version="1.1 (c68e22c387, 2021-05-23)"
   sodipodi:docname="TennisPlannerBeta.svg"
   xmlns:inkscape="http://www.inkscape.org/namespaces/inkscape"
   xmlns:sodipodi="http://sodipodi.sourceforge.net/DTD/sodipodi-0.dtd"
   xmlns="http://www.w3.org/2000/svg"
   xmlns:svg="http://www.w3.org/2000/svg">
  <sodipodi:namedview
     id="namedview7"
     pagecolor="#ffffff"
     bordercolor="#666666"
     borderopacity="1.0"
     inkscape:pageshadow="2"
     inkscape:pageopacity="0.0"
     inkscape:pagecheckerboard="0"
     inkscape:document-units="mm"
     showgrid="false"
     inkscape:zoom="0.32"
     inkscape:cx="-262.5"
     inkscape:cy="670.3125"
     inkscape:window-width="1920"
     inkscape:window-height="991"
     inkscape:window-x="-9"
     inkscape:window-y="-9"
     inkscape:window-maximized="1"
     inkscape:current-layer="layer1" />
  <defs
     id="defs2">
    <rect
       x="621.875"
       y="812.5"
       width="209.375"
       height="71.875"
       id="rect82020" />
  </defs>
  <g
     inkscape:label="Calque 1"
     inkscape:groupmode="layer"
     id="layer1"
     transform="translate(-17.724135,-25.882796)">
    <g
       id="g86156"
       transform="translate(-2.4804688,51.329193)">
      <path
         style="fill:#00ff00;stroke-width:0.289414"
         d="m 23.4196,111.08866 c -1.57751,-2.17768 -2.25235,-5.30381 -1.74678,-8.09187 0.3278,-1.80772 1.70585,-4.963303 2.33814,-5.354083 0.18046,-0.11152 1.43709,0.36737 2.79253,1.06423 l 2.46441,1.26698 h 3.8339 3.83391 l 2.48316,-1.27662 c 2.881385,-1.48137 2.909285,-1.4736 4.080215,1.1356 1.0509,2.341723 1.42505,4.816573 1.04223,6.894053 -0.33314,1.80767 -1.45812,4.33033 -2.25127,5.04812 -0.47067,0.42594 -0.63078,0.38457 -2.099445,-0.54238 -2.19514,-1.3855 -3.98299,-1.85278 -7.0888,-1.85278 -3.08534,0 -4.83681,0.4569 -7.16614,1.86941 l -1.66729,1.01105 z"
         id="path30292-6-5"
         inkscape:export-filename="C:\Users\intvo\source\repos\TennisPlanner\Resources\TennisPlannerBetaIcon.png"
         inkscape:export-xdpi="96"
         inkscape:export-ydpi="96" />
      <path
         style="fill:#00ff00;stroke-width:0.289414"
         d="m 29.62883,96.627547 c -0.79589,-0.31173 -1.77267,-0.81857 -2.17061,-1.12632 l -0.72353,-0.55951 1.73648,-0.80523 c 1.52878,-0.70895 2.08265,-0.80608 4.63063,-0.81218 2.57497,-0.007 3.0856,0.0828 4.63017,0.80588 l 1.736,0.81277 -0.72305,0.56146 c -1.08798,0.84481 -4.19309,1.722 -6.03537,1.705 -0.90131,-0.008 -2.28236,-0.26916 -3.08072,-0.58187 z"
         id="path30405-1-5"
         inkscape:export-filename="C:\Users\intvo\source\repos\TennisPlanner\Resources\TennisPlannerBetaIcon.png"
         inkscape:export-xdpi="96"
         inkscape:export-ydpi="96" />
      <path
         style="fill:#00ff00;stroke-width:0.289414"
         d="m 29.91825,115.92101 c -0.63672,-0.20135 -1.60348,-0.59836 -2.14835,-0.8822 l -0.99067,-0.5161 0.70126,-0.54674 c 0.38571,-0.30073 1.59584,-0.82406 2.68921,-1.16297 3.00702,-0.9321 6.49152,-0.42328 8.69823,1.27012 0.54272,0.41649 0.53912,0.43864 -0.14472,0.88612 -1.84178,1.2052 -6.43402,1.70162 -8.80496,0.95177 z"
         id="path30444-5-2"
         inkscape:export-filename="C:\Users\intvo\source\repos\TennisPlanner\Resources\TennisPlannerBetaIcon.png"
         inkscape:export-xdpi="96"
         inkscape:export-ydpi="96" />
    </g>
    <text
       xml:space="preserve"
       style="font-style:normal;font-weight:normal;font-size:10.5833px;line-height:1.25;font-family:sans-serif;fill:#000000;fill-opacity:1;stroke:none;stroke-width:0.264583"
       x="36.662094"
       y="111.46758"
       id="text4411"><tspan
         sodipodi:role="line"
         id="tspan4409"
         style="stroke-width:0.264583"
         x="36.662094"
         y="111.46758" /></text>
    <g
       id="g86151">
      <path
         style="fill:#00ff00;stroke-width:0.289414"
         d="m 105.84481,43.647401 c -1.57751,-2.177668 -2.25235,-5.30378 -1.74678,-8.091825 0.3278,-1.807708 1.70585,-4.96327 2.33814,-5.35405 0.18046,-0.111517 1.43709,0.36737 2.79253,1.064224 l 2.46441,1.266974 h 3.8339 3.83391 l 2.48316,-1.276614 c 2.88139,-1.481361 2.90929,-1.473591 4.08022,1.135594 1.0509,2.341708 1.42505,4.816543 1.04223,6.894011 -0.33314,1.807661 -1.45812,4.330306 -2.25127,5.048093 -0.47067,0.425937 -0.63078,0.384567 -2.09945,-0.542377 -2.19514,-1.385494 -3.98299,-1.852771 -7.0888,-1.852771 -3.08534,0 -4.83681,0.456897 -7.16614,1.869401 l -1.66729,1.011044 z"
         id="path30292"
         inkscape:export-filename="C:\Users\intvo\source\repos\TennisPlanner\Resources\TennisPlannerBetaFull.png"
         inkscape:export-xdpi="96"
         inkscape:export-ydpi="96" />
      <path
         style="fill:#00ff00;stroke-width:0.289414"
         d="m 112.05404,29.186372 c -0.79589,-0.311727 -1.77267,-0.818564 -2.17061,-1.126314 l -0.72353,-0.559504 1.73648,-0.805237 c 1.52878,-0.708937 2.08265,-0.806074 4.63063,-0.812164 2.57497,-0.007 3.0856,0.0828 4.63017,0.805874 l 1.736,0.812767 -0.72305,0.561444 c -1.08798,0.844807 -4.19309,1.721991 -6.03537,1.704991 -0.90131,-0.008 -2.28236,-0.269157 -3.08072,-0.581857 z"
         id="path30405"
         inkscape:export-filename="C:\Users\intvo\source\repos\TennisPlanner\Resources\TennisPlannerBetaFull.png"
         inkscape:export-xdpi="96"
         inkscape:export-ydpi="96" />
      <path
         style="fill:#00ff00;stroke-width:0.289414"
         d="m 112.34346,48.479724 c -0.63672,-0.20135 -1.60348,-0.598357 -2.14835,-0.882194 l -0.99067,-0.516097 0.70126,-0.546747 c 0.38571,-0.30073 1.59584,-0.824057 2.68921,-1.162964 3.00702,-0.932097 6.49152,-0.423277 8.69823,1.270111 0.54272,0.41649 0.53912,0.43864 -0.14472,0.886117 -1.84178,1.205191 -6.43402,1.701608 -8.80496,0.951774 z"
         id="path30444"
         inkscape:export-filename="C:\Users\intvo\source\repos\TennisPlanner\Resources\TennisPlannerBetaFull.png"
         inkscape:export-xdpi="96"
         inkscape:export-ydpi="96" />
      <text
         xml:space="preserve"
         style="font-style:normal;font-variant:normal;font-weight:normal;font-stretch:normal;font-size:19.7556px;line-height:1.25;font-family:Papyrus;-inkscape-font-specification:Papyrus;fill:#000000;stroke-width:0.264583"
         x="17.608379"
         y="61.619499"
         id="text11741"
         inkscape:export-filename="C:\Users\intvo\source\repos\TennisPlanner\Resources\TennisPlannerBetaFull.png"
         inkscape:export-xdpi="96"
         inkscape:export-ydpi="96"><tspan
           sodipodi:role="line"
           id="tspan11739"
           style="font-style:normal;font-variant:normal;font-weight:normal;font-stretch:normal;font-size:19.7556px;font-family:Papyrus;-inkscape-font-specification:Papyrus;fill:#000000;stroke-width:0.264583"
           x="17.608379"
           y="61.619499">TennisPlanner</tspan></text>
      <text
         xml:space="preserve"
         style="font-size:6.73609px;line-height:1.25;font-family:Papyrus;-inkscape-font-specification:Papyrus;fill:#0000ff;stroke-width:0.252603"
         x="124.31628"
         y="70.847855"
         id="text27839"
         inkscape:export-filename="C:\Users\intvo\source\repos\TennisPlanner\Resources\TennisPlannerBetaFull.png"
         inkscape:export-xdpi="96"
         inkscape:export-ydpi="96"><tspan
           sodipodi:role="line"
           id="tspan27837"
           style="font-size:6.73609px;fill:#0000ff;stroke-width:0.252603"
           x="124.31628"
           y="70.847855">Beta</tspan></text>
    </g>
    <g
       id="g86165"
       transform="translate(-46.302083,-147.70366)">
      <path
         style="fill:#00ff00;stroke-width:0.289414"
         d="m 68.04324,259.50338 c -1.57751,-2.17768 -2.25235,-5.30381 -1.74678,-8.09187 0.3278,-1.80772 1.70585,-4.9633 2.33814,-5.35408 0.18046,-0.11152 1.43709,0.36737 2.79253,1.06423 l 2.46441,1.26698 h 3.8339 3.83391 l 2.48316,-1.27662 c 2.88139,-1.48137 2.90929,-1.4736 4.08022,1.1356 1.0509,2.34172 1.42505,4.81657 1.04223,6.89405 -0.33314,1.80767 -1.45812,4.33033 -2.25127,5.04812 -0.47067,0.42594 -0.63078,0.38457 -2.09945,-0.54238 -2.19514,-1.3855 -3.98299,-1.85278 -7.0888,-1.85278 -3.08534,0 -4.83681,0.4569 -7.16614,1.86941 l -1.66729,1.01105 z"
         id="path30292-6"
         inkscape:export-filename="C:\Users\intvo\source\repos\TennisPlanner\Resources\TennisPlannerBetaSmall.png"
         inkscape:export-xdpi="96"
         inkscape:export-ydpi="96" />
      <path
         style="fill:#00ff00;stroke-width:0.289414"
         d="m 74.25247,245.04227 c -0.79589,-0.31173 -1.77267,-0.81857 -2.17061,-1.12632 l -0.72353,-0.55951 1.73648,-0.80524 c 1.52878,-0.70894 2.08265,-0.80608 4.63063,-0.81217 2.57497,-0.007 3.0856,0.0828 4.63017,0.80588 l 1.736,0.81277 -0.72305,0.56145 c -1.08798,0.84481 -4.19309,1.722 -6.03537,1.705 -0.90131,-0.008 -2.28236,-0.26916 -3.08072,-0.58186 z"
         id="path30405-1"
         inkscape:export-filename="C:\Users\intvo\source\repos\TennisPlanner\Resources\TennisPlannerBetaSmall.png"
         inkscape:export-xdpi="96"
         inkscape:export-ydpi="96" />
      <path
         style="fill:#00ff00;stroke-width:0.289414"
         d="m 74.54189,264.33573 c -0.63672,-0.20135 -1.60348,-0.59836 -2.14835,-0.8822 l -0.99067,-0.5161 0.70126,-0.54675 c 0.38571,-0.30073 1.59584,-0.82406 2.68921,-1.16297 3.00702,-0.9321 6.49152,-0.42328 8.69823,1.27012 0.54272,0.41649 0.53912,0.43864 -0.14472,0.88612 -1.84178,1.2052 -6.43402,1.70162 -8.80496,0.95178 z"
         id="path30444-5"
         inkscape:export-filename="C:\Users\intvo\source\repos\TennisPlanner\Resources\TennisPlannerBetaSmall.png"
         inkscape:export-xdpi="96"
         inkscape:export-ydpi="96" />
      <text
         xml:space="preserve"
         style="font-style:normal;font-variant:normal;font-weight:normal;font-stretch:normal;font-size:19.7556px;line-height:1.25;font-family:Papyrus;-inkscape-font-specification:Papyrus;fill:#000000;stroke-width:0.264583"
         x="86.744606"
         y="259.33661"
         id="text11741-0"
         inkscape:export-filename="C:\Users\intvo\source\repos\TennisPlanner\Resources\TennisPlannerBetaSmall.png"
         inkscape:export-xdpi="96"
         inkscape:export-ydpi="96"><tspan
           sodipodi:role="line"
           id="tspan11739-3"
           style="font-style:normal;font-variant:normal;font-weight:normal;font-stretch:normal;font-size:19.7556px;font-family:Papyrus;-inkscape-font-specification:Papyrus;fill:#000000;stroke-width:0.264583"
           x="86.744606"
           y="259.33661">TP</tspan></text>
      <text
         xml:space="preserve"
         style="font-size:6.73609px;line-height:1.25;font-family:Papyrus;-inkscape-font-specification:Papyrus;fill:#0000ff;stroke-width:0.252603"
         x="115.38174"
         y="262.28262"
         id="text27839-9"
         inkscape:export-filename="C:\Users\intvo\source\repos\TennisPlanner\Resources\TennisPlannerBetaSmall.png"
         inkscape:export-xdpi="96"
         inkscape:export-ydpi="96"><tspan
           sodipodi:role="line"
           id="tspan27837-3"
           style="font-size:6.73609px;fill:#0000ff;stroke-width:0.252603"
           x="115.38174"
           y="262.28262">Beta</tspan></text>
    </g>
    <text
       xml:space="preserve"
       transform="scale(0.26458333)"
       id="text82018"
       style="font-size:40px;line-height:1.25;font-family:Gabriola;-inkscape-font-specification:Gabriola;white-space:pre;shape-inside:url(#rect82020)" />
  </g>
</svg>
